HIERARCHY
ROOT Hips
{
	OFFSET 0.00000 0.00000 0.00000
	CHANNELS 6 Xposition Yposition Zposition Zrotation Yrotation Xrotation 
	JOINT LHipJoint
	{
		OFFSET 0 0 0
		CHANNELS 3 Zrotation Yrotation Xrotation
		JOINT LeftUpLeg
		{
			OFFSET 1.62964 -1.40469 0.78906
			CHANNELS 3 Zrotation Yrotation Xrotation
			JOINT LeftLeg
			{
				OFFSET 2.29640 -6.30932 0.00000
				CHANNELS 3 Zrotation Yrotation Xrotation
				JOINT LeftFoot
				{
					OFFSET 2.29451 -6.30412 0.00000
					CHANNELS 3 Zrotation Yrotation Xrotation
					JOINT LeftToeBase
					{
						OFFSET 0.03611 -0.09921 1.56387
						CHANNELS 3 Zrotation Yrotation Xrotation
						End Site
						{
							OFFSET 0.00000 -0.00000 0.80291
						}
					}
				}
			}
		}
	}
	JOINT RHipJoint
	{
		OFFSET 0 0 0
		CHANNELS 3 Zrotation Yrotation Xrotation
		JOINT RightUpLeg
		{
			OFFSET -1.73712 -1.40469 0.78906
			CHANNELS 3 Zrotation Yrotation Xrotation
			JOINT RightLeg
			{
				OFFSET -2.28137 -6.26801 0.00000
				CHANNELS 3 Zrotation Yrotation Xrotation
				JOINT RightFoot
				{
					OFFSET -2.28681 -6.28298 0.00000
					CHANNELS 3 Zrotation Yrotation Xrotation
					JOINT RightToeBase
					{
						OFFSET -0.15927 -0.43759 1.61103
						CHANNELS 3 Zrotation Yrotation Xrotation
						End Site
						{
							OFFSET -0.00000 -0.00000 0.84630
						}
					}
				}
			}
		}
	}
	JOINT LowerBack
	{
		OFFSET 0 0 0
		CHANNELS 3 Zrotation Yrotation Xrotation
		JOINT Spine
		{
			OFFSET -0.04227 2.04338 -0.00225
			CHANNELS 3 Zrotation Yrotation Xrotation
			JOINT Spine1
			{
				OFFSET -0.02148 2.04482 -0.04273
				CHANNELS 3 Zrotation Yrotation Xrotation
				JOINT Neck
				{
					OFFSET 0 0 0
					CHANNELS 3 Zrotation Yrotation Xrotation
					JOINT Neck1
					{
						OFFSET 0.09180 1.44629 0.19359
						CHANNELS 3 Zrotation Yrotation Xrotation
						JOINT Head
						{
							OFFSET 0.00887 1.40645 0.14750
							CHANNELS 3 Zrotation Yrotation Xrotation
							End Site
							{
								OFFSET -0.00669 1.50671 0.03707
							}
						}
					}
				}
				JOINT LeftShoulder
				{
					OFFSET 0 0 0
					CHANNELS 3 Zrotation Yrotation Xrotation
					JOINT LeftArm
					{
						OFFSET 2.17674 1.86763 -0.06520
						CHANNELS 3 Zrotation Yrotation Xrotation
						JOINT LeftForeArm
						{
							OFFSET 4.65776 -0.00000 0.00000
							CHANNELS 3 Zrotation Yrotation Xrotation
							JOINT LeftHand
							{
								OFFSET 3.55539 -0.00000 0.00000
								CHANNELS 3 Zrotation Yrotation Xrotation
								JOINT LeftFingerBase
								{
									OFFSET 0 0 0
									CHANNELS 3 Zrotation Yrotation Xrotation
									JOINT LeftHandIndex1
									{
										OFFSET 0.70726 -0.00000 0.00000
										CHANNELS 3 Zrotation Yrotation Xrotation
										End Site
										{
											OFFSET 0.57022 -0.00000 0.00000
										}
									}
								}
								JOINT LThumb
								{
									OFFSET 0 0 0
									CHANNELS 3 Zrotation Yrotation Xrotation
									End Site
									{
										OFFSET 0.57892 -0.00000 0.57892
									}
								}
							}
						}
					}
				}
				JOINT RightShoulder
				{
					OFFSET 0 0 0
					CHANNELS 3 Zrotation Yrotation Xrotation
					JOINT RightArm
					{
						OFFSET -2.80694 1.55459 -0.32496
						CHANNELS 3 Zrotation Yrotation Xrotation
						JOINT RightForeArm
						{
							OFFSET -4.71925 -0.00000 -0.00000
							CHANNELS 3 Zrotation Yrotation Xrotation
							JOINT RightHand
							{
								OFFSET -3.56990 -0.00000 0.00000
								CHANNELS 3 Zrotation Yrotation Xrotation
								JOINT RightFingerBase
								{
									OFFSET 0 0 0
									CHANNELS 3 Zrotation Yrotation Xrotation
									JOINT RightHandIndex1
									{
										OFFSET -0.50776 -0.00000 0.00000
										CHANNELS 3 Zrotation Yrotation Xrotation
										End Site
										{
											OFFSET -0.40937 -0.00000 0.00000
										}
									}
								}
								JOINT RThumb
								{
									OFFSET 0 0 0
									CHANNELS 3 Zrotation Yrotation Xrotation
									End Site
									{
										OFFSET -0.41562 -0.00000 0.41562
									}
								}
							}
						}
					}
				}
			}
		}
	}
}
MOTION
Frames: 7
Frame Time: .0083333
8.5266 16.3748 9.5169 0 0 0 0 0 0 -21 0 0 0 0 0 0 0 0 0 0 0 0 0 0 21 0 0 0 0 0 0 0 0 0 0 0 0 0 0 0 0 0 0 0 0 0 0 -16 0 0 21 0 0 11 0 0 0 -8 0 0 0 0 0 0 0 0 0 0 0 0 0 0 0 0 0 0 0 0 8 0 0 0 0 0 0 0 0 0 0 0 0 0 0 0 0 0
8.5266 16.3748 9.5169 -179.8930 2.6256 -150.4520 0.0000 0.0000 0.0000 -15.8685 -18.7618 -23.0530 0.1941 2.8375 7.8267 0.2287 -2.4720 -8.5149 5.4440 -13.8670 -42.7072 0.0000 0.0000 0.0000 14.5911 16.7492 -23.3443 -0.2450 -3.1853 8.7949 -1.1315 -5.0154 -22.4876 -3.0464 10.7698 -31.5073 -5.3579 -1.8674 -27.1682 -0.7436 -0.0192 -2.2636 2.2990 0.0147 12.6436 -5.1658 -2.8016 -2.9522 8.7227 -3.8477 15.4129 3.4087 -1.3018 5.3704 0.0000 -0.0000 0.0000 -83.6609 -1.8778 -3.4291 4.9676 -8.5298 -0.3707 -0.0000 -0.0000 28.9362 17.3428 -11.0052 -3.4116 -7.1250 0.0000 -0.0000 -6.8634 18.5110 4.3606 0.0000 -0.0000 0.0000 90.6672 -5.0543 13.6130 -20.0442 30.6956 -5.5539 0.0000 0.0000 1.2465 -10.3483 -50.8947 8.0649 7.1250 -0.0000 -0.0000 60.2227 -74.3428 -45.3373
8.5353 16.3772 9.5073 -179.8930 2.7505 -150.5590 0.0000 0.0000 0.0000 -15.8645 -18.8382 -22.9520 0.2062 2.9239 8.0671 0.2251 -2.2281 -8.4658 4.9869 -13.3691 -40.7662 0.0000 0.0000 0.0000 14.6805 16.6709 -23.2613 -0.2499 -3.2166 8.8824 -1.1065 -5.2007 -22.3866 -3.2673 11.1157 -32.6711 -5.3680 -1.8100 -27.1022 -0.7448 0.0563 -2.3064 2.3316 0.0531 12.5525 -5.2424 -2.7680 -2.7732 8.7226 -3.7934 15.3419 3.4256 -1.2838 5.3149 -0.0000 -0.0000 0.0000 -83.7098 -1.6290 -3.3645 5.1127 -8.7745 -0.3925 -0.0000 -0.0000 28.6864 17.2518 -11.0633 -3.4103 -7.1250 0.0000 -0.0000 -6.9274 18.4571 4.4102 -0.0000 -0.0000 0.0000 90.6433 -4.9494 13.4585 -19.8107 30.4136 -5.4352 0.0000 0.0000 1.5680 -10.8184 -50.8939 8.4346 7.1250 -0.0000 -0.0000 59.9179 -74.5197 -45.2596
8.5419 16.3735 9.4956 -179.9290 2.8114 -150.5500 0.0000 0.0000 0.0000 -15.9542 -18.7698 -22.9799 0.2090 2.9437 8.1220 0.1805 -1.8520 -7.5937 4.3876 -12.6591 -38.1054 0.0000 0.0000 0.0000 14.6684 16.7022 -23.1916 -0.2481 -3.2048 8.8496 -1.0934 -5.3456 -22.3629 -3.4021 11.3192 -33.3640 -5.3806 -1.7350 -27.2328 -0.8024 0.1797 -2.2947 2.3196 0.1101 12.6267 -5.1282 -2.7892 -2.7657 8.6780 -3.8253 15.2624 3.3894 -1.2990 5.2886 -0.0000 -0.0000 0.0000 -83.5727 -1.5122 -1.7194 5.2680 -9.0360 -0.4166 -0.0000 -0.0000 26.9792 17.2593 -10.8259 -3.3397 -7.1250 0.0000 -0.0000 -6.9221 18.7024 4.3690 -0.0000 -0.0000 0.0000 90.6604 -4.7852 13.3723 -19.6510 30.2196 -5.3546 0.0000 0.0000 1.6986 -10.3869 -51.0500 8.1129 7.1250 -0.0000 -0.0000 60.7120 -74.4220 -45.8472
8.5495 16.3712 9.4868 -179.9470 2.7688 -150.4700 0.0000 0.0000 0.0000 -15.9697 -18.6464 -23.0975 0.2089 2.9425 8.1187 0.1782 -1.9971 -7.5291 4.5803 -12.8950 -38.9767 0.0000 0.0000 0.0000 14.6768 16.7547 -23.1635 -0.2431 -3.1727 8.7599 -1.0827 -5.3690 -22.2857 -3.3283 11.2085 -32.9863 -5.3848 -1.7059 -27.3561 -0.8259 0.2403 -2.3238 2.3191 0.1424 12.6540 -5.0246 -2.8164 -2.7593 8.6356 -3.8651 15.1892 3.3553 -1.3183 5.2653 0.0000 -0.0000 0.0000 -83.4531 -1.4036 0.0269 5.4311 -9.3100 -0.4426 -0.0000 -0.0000 25.2374 17.2437 -10.6908 -3.2954 -7.1250 0.0000 -0.0000 -6.9333 18.8434 4.3543 0.0000 -0.0000 0.0000 90.6452 -4.6894 13.3300 -19.5391 30.0830 -5.2984 0.0000 0.0000 1.9445 -9.4135 -51.4491 7.3876 7.1250 -0.0000 -0.0000 62.6341 -74.2161 -47.3104
8.5548 16.3698 9.4711 -179.9810 2.9225 -150.5200 0.0000 0.0000 0.0000 -16.0633 -18.5956 -22.8782 0.2030 2.9012 8.0038 0.1802 -1.8643 -7.5857 4.6010 -12.9198 -39.0691 0.0000 0.0000 0.0000 14.6229 16.8408 -23.0097 -0.2391 -3.1469 8.6880 -1.0835 -5.3207 -22.2622 -3.2017 11.0146 -32.3291 -5.4062 -1.6352 -27.4329 -0.8528 0.3522 -2.3367 2.3434 0.1946 12.6715 -5.0096 -2.8244 -2.7230 8.6078 -3.8746 15.1188 3.3428 -1.3276 5.2373 0.0000 -0.0000 0.0000 -83.4585 -1.3572 0.9932 5.5334 -9.4817 -0.4593 -0.0000 -0.0000 24.2542 17.1434 -10.4688 -3.2080 -7.1250 0.0000 -0.0000 -7.0048 19.0800 4.3628 0.0000 -0.0000 0.0000 90.6298 -4.7598 13.3454 -19.5300 30.0719 -5.2938 0.0000 0.0000 1.9916 -9.3662 -51.6155 7.3671 7.1250 -0.0000 -0.0000 63.2148 -74.2622 -47.8728
8.5619 16.3705 9.4625 -180.1070 3.0953 -150.6050 0.0000 0.0000 0.0000 -16.2493 -18.5678 -22.6761 0.1968 2.8568 7.8804 0.1815 -1.6969 -7.6339 4.8237 -13.1824 -40.0553 0.0000 0.0000 0.0000 14.4157 17.0509 -22.8367 -0.2355 -3.1232 8.6220 -1.0766 -5.4991 -22.3142 -3.1559 10.9433 -32.0888 -5.5591 -1.5919 -27.3853 -0.8905 0.4574 -2.3407 2.4271 0.2365 12.6332 -5.0365 -2.8192 -2.7436 8.5899 -3.8667 15.0479 3.3409 -1.3305 5.2186 -0.0000 0.0000 0.0000 -83.5536 -1.5055 0.9911 5.5314 -9.4784 -0.4589 -0.0000 -0.0000 24.3037 17.3521 -10.4293 -3.2374 -7.1250 0.0000 -0.0000 -6.8573 19.1071 4.2654 -0.0000 0.0000 0.0000 90.6663 -4.7089 13.2828 -19.4855 30.0175 -5.2715 0.0000 0.0000 1.7461 -10.5199 -51.2743 8.2432 7.1250 -0.0000 -0.0000 61.3807 -74.5632 -46.5822
